<svg xmlns="http://www.w3.org/2000/svg" viewBox="0 0 512 512">
  <defs>
    <radialGradient id="bg" cx="50%" cy="38%" r="75%">
      <stop offset="0%" stop-color="#6C4AB6"/>
      <stop offset="55%" stop-color="#2c1f4d"/>
      <stop offset="100%" stop-color="#0B0B14"/>
    </radialGradient>
    <linearGradient id="moon" x1="0%" y1="0%" x2="100%" y2="100%">
      <stop offset="0%" stop-color="#F5F1EB"/>
      <stop offset="100%" stop-color="#C9A227"/>
    </linearGradient>
  </defs>
  <rect width="512" height="512" fill="url(#bg)"/>
  <circle cx="150" cy="120" r="4" fill="#F5F1EB" opacity="0.8"/>
  <circle cx="380" cy="90" r="3" fill="#C9A227" opacity="0.9"/>
  <circle cx="420" cy="180" r="2.5" fill="#F5F1EB" opacity="0.7"/>
  <circle cx="110" cy="220" r="2" fill="#D291BC" opacity="0.8"/>
  <circle cx="430" cy="400" r="3" fill="#F5F1EB" opacity="0.7"/>
  <circle cx="90" cy="380" r="2.5" fill="#C9A227" opacity="0.7"/>
  <path d="M296 176c-52 0-94 42-94 94s42 94 94 94c18 0 34-5 48-14-40 4-78-27-78-80 0-53 38-84 78-80-14-9-30-14-48-14z" fill="url(#moon)"/>
</svg>
